<svg xmlns="http://www.w3.org/2000/svg" xmlns:xlink="http://www.w3.org/1999/xlink" viewBox="0 0 1369 767"><defs><linearGradient id="linear-gradient" x1="0.5" y1="383.5" x2="1368.5" y2="383.5" gradientUnits="userSpaceOnUse"><stop offset="0.01" stop-color="#337cac"/><stop offset="0.17" stop-color="#0075be"/><stop offset="0.5" stop-color="#1e9cd7"/><stop offset="0.65" stop-color="#22a2db"/><stop offset="1" stop-color="#29abe2"/></linearGradient><linearGradient id="linear-gradient-2" x1="0.75" y1="1.25" x2="131.18" y2="131.68" gradientUnits="userSpaceOnUse"><stop offset="0.01" stop-color="#fbb03b"/><stop offset="0.17" stop-color="#f7931e"/><stop offset="0.5" stop-color="#ffb317"/><stop offset="0.53" stop-color="#ffb617"/><stop offset="0.82" stop-color="#ffd017"/><stop offset="1" stop-color="#ffd917"/></linearGradient><linearGradient id="linear-gradient-3" x1="38.99" y1="222" x2="43.89" y2="222" gradientUnits="userSpaceOnUse"><stop offset="0.05" stop-color="#f7931e"/><stop offset="0.17" stop-color="#fbb03b"/><stop offset="0.5" stop-color="#ffc72e"/><stop offset="0.74" stop-color="#ffd53c"/><stop offset="1" stop-color="#ffde45"/></linearGradient><linearGradient id="linear-gradient-4" x1="36.49" y1="222.34" x2="46.39" y2="222.34" xlink:href="#linear-gradient-3"/><linearGradient id="linear-gradient-5" x1="187.12" y1="142.71" x2="192.02" y2="142.71" gradientTransform="matrix(1, -1.63, 1.67, 0.93, -213.36, 308.2)" xlink:href="#linear-gradient-3"/><linearGradient id="linear-gradient-6" x1="184.62" y1="143.05" x2="194.52" y2="143.05" gradientTransform="matrix(1, -1.63, 1.67, 0.93, -213.36, 308.2)" xlink:href="#linear-gradient-3"/><linearGradient id="linear-gradient-7" x1="116.08" y1="200.21" x2="125.98" y2="200.21" gradientTransform="matrix(-2, 1.34, -1.51, -1.87, 690.29, 404.7)" xlink:href="#linear-gradient-3"/><linearGradient id="linear-gradient-8" x1="79.24" y1="203.57" x2="84.13" y2="203.57" gradientTransform="matrix(1.67, -0.82, 0.56, 1.77, -163.18, -71.97)" xlink:href="#linear-gradient-3"/><linearGradient id="linear-gradient-9" x1="76.74" y1="203.91" x2="86.63" y2="203.91" gradientTransform="matrix(1.67, -0.82, 0.56, 1.77, -163.18, -71.97)" xlink:href="#linear-gradient-3"/><linearGradient id="linear-gradient-10" x1="224.41" y1="134.23" x2="234.3" y2="134.23" gradientTransform="matrix(0.1, -1.91, 1.92, 0.03, -45.12, 496.18)" xlink:href="#linear-gradient-3"/><linearGradient id="linear-gradient-11" x1="242.11" y1="128.87" x2="247.01" y2="128.87" gradientTransform="matrix(-0.52, -0.44, 0.67, -0.12, 260.45, 142.43)" xlink:href="#linear-gradient-3"/><linearGradient id="linear-gradient-12" x1="239.61" y1="129.21" x2="249.51" y2="129.21" gradientTransform="matrix(-0.52, -0.44, 0.67, -0.12, 260.45, 142.43)" xlink:href="#linear-gradient-3"/><linearGradient id="linear-gradient-13" x1="522.34" y1="377.2" x2="1272.95" y2="377.2" gradientUnits="userSpaceOnUse"><stop offset="0" stop-color="#79bef7"/><stop offset="0.09" stop-color="#70baf4"/><stop offset="0.24" stop-color="#56b1eb"/><stop offset="0.44" stop-color="#2da2dc"/><stop offset="0.5" stop-color="#1e9cd7"/><stop offset="0.83" stop-color="#0075be"/><stop offset="0.99" stop-color="#005b97"/></linearGradient><linearGradient id="linear-gradient-14" x1="-427.39" y1="246.17" x2="-414.56" y2="246.17" gradientTransform="matrix(-1.54, 0.68, -1.05, 1.32, 596.75, 642.85)" xlink:href="#linear-gradient-3"/><linearGradient id="linear-gradient-15" x1="-63.7" y1="-105.33" x2="-53.8" y2="-105.33" gradientTransform="matrix(-2, 1.34, -1.51, -1.87, 690.29, 404.7)" xlink:href="#linear-gradient-3"/><linearGradient id="linear-gradient-16" x1="-155.82" y1="-181.89" x2="-145.92" y2="-181.89" gradientTransform="matrix(1.1, 2.14, -2.03, 1.29, 1007.76, 1081.6)" xlink:href="#linear-gradient-3"/><linearGradient id="linear-gradient-17" x1="-149.26" y1="-206.67" x2="-35.19" y2="-206.67" gradientTransform="matrix(-2, -0.41, -2.03, -0.2, 635.92, 582.8)" xlink:href="#linear-gradient-3"/><linearGradient id="linear-gradient-18" x1="1022.61" y1="421.78" x2="974.39" y2="411.85" xlink:href="#linear-gradient-3"/><linearGradient id="linear-gradient-19" x1="-159.78" y1="-57.5" x2="-45.72" y2="-57.5" gradientTransform="matrix(-1.89, 0.76, -1.8, 0.95, 658.91, 764.36)" xlink:href="#linear-gradient-3"/></defs><g id="Background"><path d="M1368.5,766.5H.5v-606c88,0,160-72,160-160h1208Z" style="stroke:#000;stroke-miterlimit:10;opacity:0.5;fill:url(#linear-gradient)"/><path d="M.5,1.5h181a0,0,0,0,1,0,0v9a171,171,0,0,1-171,171H.5a0,0,0,0,1,0,0V1.5A0,0,0,0,1,.5,1.5Z" style="fill:url(#linear-gradient-2)"/><path d="M41.5,199.5c-.43,7.15,1.25,14.72,2.29,22.17S37,237.34,39.5,244.5" style="stroke-miterlimit:10;stroke-width:5px;fill:url(#linear-gradient-3);stroke:url(#linear-gradient-4)"/><path d="M177.72,110.74c11.53,7.38,25.88,11.7,39.38,17C230.75,133,236.47,153.46,251,156" style="stroke-miterlimit:10;stroke-width:5px;fill:url(#linear-gradient-5);stroke:url(#linear-gradient-6)"/><path d="M181,235c-9.92-13.94-24.7-25.84-38-38.36s-10-38.39-25.88-48.39" style="fill:none;stroke-miterlimit:10;stroke-width:5px;stroke:url(#linear-gradient-7)"/><path d="M74.19,181.71c3.28,13,10.3,25,16.21,37.37S87.76,252.4,96,263" style="stroke-miterlimit:10;stroke-width:5px;fill:url(#linear-gradient-8);stroke:url(#linear-gradient-9)"/><path d="M192.31,60.18c13.65,1,28.33-2,42.7-3.82,14.53-1.83,29.3,13.46,43.29,8.78" style="fill:none;stroke-miterlimit:10;stroke-width:5px;stroke:url(#linear-gradient-10)"/><path d="M203.7,22.79c5-.67,9.23-2.32,13.68-3.67s14.1,1.09,17.58-.88" style="stroke-miterlimit:10;stroke-width:5px;fill:url(#linear-gradient-11);stroke:url(#linear-gradient-12)"/></g><g id="Layer_1" data-name="Layer 1"><path d="M989.26,749.37a504.18,504.18,0,0,1-133.41-18.23c-29-8-72.87-20-118.69-43.24-54.86-27.84-99.92-65.53-133.92-112-75.55-103.32-93.85-243.74-72.72-323.4,8.26-31.15,22.35-52,40.73-60.18a45.77,45.77,0,0,1,18.83-3.95c34.68,0,73.84,36,115.3,74.13,41.79,38.43,85,78.16,120.41,78.16a40.62,40.62,0,0,0,15.26-2.85c38.8-15.34,41.64-87.87,44.39-158,1.4-35.77,2.85-72.75,9.22-102.67,7.65-36,21.88-58,43.5-67.39A58.93,58.93,0,0,1,961.73,5c43.81,0,103.54,42.07,163.89,115.43,59.79,72.69,107.09,160.05,129.75,239.67,41.25,144.91-2.79,249.93-4.69,254.33a271.76,271.76,0,0,1-20.86,38.59,268.94,268.94,0,0,1-34.44,40.71C1176.22,711.9,1100.64,749.37,989.26,749.37Z" style="fill:url(#linear-gradient-13)"/><path d="M1013.35,650.84c-6.84,9.15-22.37,17.42-26.82,30.86-4.24,12.81-5.9,16.06-17.35,27.26" style="fill:none;stroke-miterlimit:10;stroke-width:5px;stroke:url(#linear-gradient-14)"/><path d="M1000.82,565.8c-9.93-13.94-24.7-25.85-38-38.36s-10-38.4-25.89-48.39" style="fill:none;stroke-miterlimit:10;stroke-width:5px;stroke:url(#linear-gradient-15)"/><path d="M1257.32,496.35c-15,8.26-28.5,21.58-42.45,33.39-14.11,11.93-39.29,5.56-51,20.19" style="fill:none;stroke-miterlimit:10;stroke-width:5px;stroke:url(#linear-gradient-16)"/><path d="M1289,667c-17.91,10.88-26.76,10.54-31.5,7.5-4.89-3.13-8.54-11.15-18.09-12.9-1.89-.35-1.65,0-3.47-.37-10.51-2-12.09-11.93-18.44-12.73-6-.76-7.93,7.7-15.87,10.27-5,1.62-13.35,1.16-27.13-10.27" style="fill:none;stroke-miterlimit:10;stroke-width:5px;stroke:url(#linear-gradient-17)"/><rect x="976.5" y="396.5" width="44" height="40.63" rx="19.48" style="fill:none;stroke-miterlimit:10;stroke-width:5px;stroke:url(#linear-gradient-18)"/><path d="M1000.87,608.47c-9,18.95-16.52,23.55-22.15,23.63-5.8.08-13.27-4.6-22.2-.79-1.77.75-1.39.89-3.1,1.6-9.88,4.11-16.66-3.28-22.4-.45-5.44,2.68-2.37,10.8-7.58,17.32-3.3,4.12-10.5,8.33-28.29,6.39" style="fill:none;stroke-miterlimit:10;stroke-width:5px;stroke:url(#linear-gradient-19)"/><image width="2734" height="4096" transform="translate(890 136) scale(0.15 0.15)" xlink:href="../../pexels-pavel-danilyuk-8421989.png"/><path d="M871.73,363.07c88.39-35,14-292,97.4-328.19,78.64-34.1,252.56,164.6,303.62,344,37.69,132.4,2.32,232.37-4.25,247.63a261.81,261.81,0,0,1-20,37s-14.08,21.08-33,39c-26.8,25.39-160.44,81.53-330,35C827,721.45,714.88,690.67,638.31,586c-99.92-136.66-96.83-341.32-36-368.55C670.81,186.76,788.21,396.11,871.73,363.07Z" style="fill:none;stroke:#000;stroke-miterlimit:10;stroke-width:4px"/></g></svg>