<svg id="Layer_1" data-name="Layer 1" xmlns="http://www.w3.org/2000/svg" viewBox="0 0 2000 2000"><path d="M1032.93,774.2l-12.3.29,10.19-14.85-29.49.93V759a4.61,4.61,0,1,0-2.66,0v60.15h2.66V787.7l12.83,3.42Z" style="fill:#f7941d"/><path d="M1110.9,1013.44v-11.25h-23.27v11.25H1081V915.91h-14.19V904.65h-23.27v11.26H1030V904.65h-23.27v11.26H993.24V904.65H970v11.26H956.46V904.65H933.19v11.26H919v97.53h-6.63v-11.25H889.1v11.25h-9.3v107.71h99.38v-73.08a20.79,20.79,0,0,1,41.58,0v73.08h99.44V1013.44Zm-6.3,67.19v20h-28.31v-20Zm-28.31-23.11v-20h28.31v20Zm-12.11,23.11v20h-28.31v-20Zm2-106.93v20h-29.9v-20Zm-2,63.84v20h-28.31v-20Zm-27.93-99.19h29.9v20.7h-29.9Zm-57.07,13.76a20.82,20.82,0,0,1,41.64,0v61.33H979.18Zm-43.73,6.94v-20.7h28.3v20.7Zm28.68,78.49v20H935.82v-20Zm-.38-63.84v20h-28.3v-20Zm.38,106.93v20H935.82v-20Zm-40.42,0v20H895.4v-20Zm-28.31-23.11v-20h28.31v20Z" style="fill:#44ade2"/><path d="M1045.51,873.57,1000,831.8l-45.51,41.77h-1.62a19,19,0,0,0-19,18.95h132.3a19,19,0,0,0-19-18.95Z" style="fill:#e65658"/><path d="M1184.83,982.24h-36.69l-9.23,138.91h55.16ZM1171,991.67h5.09l3,45.42H1171Zm-9,85.2h-11l2-29.72h9Zm9,36.85v-27.1h11.65l1.8,27.1Z" style="fill:#fdbe12"/><path d="M815.17,982.24l-9.24,138.91h55.16l-9.23-138.91ZM838,1047.15h9l2,29.72H838Zm-9,66.57H815.58l1.8-27.1H829Zm0-76.63h-8.11l3-45.42H829Z" style="fill:#8cc542"/><polygon points="1184.13 949.57 1184.13 964.06 1171.34 964.06 1171.34 949.57 1161.63 949.57 1161.63 964.06 1148.84 964.06 1148.84 949.57 1139.13 949.57 1139.13 973.49 1193.84 973.49 1193.84 949.57 1184.13 949.57" style="fill:#1bb78f"/><polygon points="860.87 949.57 851.16 949.57 851.16 964.06 838.37 964.06 838.37 949.57 828.66 949.57 828.66 964.06 815.87 964.06 815.87 949.57 806.16 949.57 806.16 973.49 860.87 973.49 860.87 949.57" style="fill:#bc7eb3"/><text transform="translate(540.01 1223.67)" style="font-size:104.89937591552734px;fill:#fff200;font-family:CooperBlack, Cooper Black;letter-spacing:0.5099982934427436em">K<tspan x="140.27" y="0" style="fill:#00aeef;letter-spacing:0.510002930760487em">!</tspan><tspan x="226.08" y="0" style="fill:#78c143;letter-spacing:0.510002930760487em">d</tspan><tspan x="347.81" y="0" style="fill:#00aeef">s </tspan><tspan x="531.02" y="0" style="fill:#fcee21">C</tspan><tspan x="660.02" y="0" style="fill:#fbb040;letter-spacing:0.510002930760487em">l</tspan><tspan x="751.83" y="0" style="fill:#fcee21;letter-spacing:0.510002930760487em">u</tspan><tspan x="876.42" y="0" style="fill:#6dbe47">b</tspan></text></svg>